# AST/ASF file generated using VICON BodyLanguage
# -----------------------------------------------
:version 1.10
:name VICON
:units
  mass 1.0
  length 0.45
  angle deg
:documentation
   .ast/.asf automatically generated from VICON data using
   VICON BodyBuilder and BodyLanguage model FoxedUp or BRILLIANT.MOD
:root
   order TX TY TZ RX RY RZ
   axis XYZ
   position 0 0 0  
   orientation 0 0 0 
:bonedata
  begin
     id 1 
     name lhipjoint
     direction 0.734343 -0.627749 0.258209 
     length 2.5437 
     axis 0 0 0  XYZ
  end
  begin
     id 2 
     name lfemur
     direction 0.34202 -0.939693 0  
     length 6.7391  
     axis 0 0 20  XYZ
    dof rx ry rz
    limits (-160.0 20.0)
           (-70.0 70.0)
           (-60.0 70.0)
  end
  begin
     id 3 
     name ltibia
     direction 0.34202 -0.939693 0   
     length 7.21536   
     axis 0 0 20   XYZ
    dof rx
    limits (-10.0 170.0)
  end
  begin
     id 4 
     name lfoot
     direction 0.0489572 -0.134509 0.989702   
     length 1.61313   
     axis -90 7.62852e-016 20   XYZ
    dof rx rz
    limits (-45.0 90.0)
           (-70.0 20.0)
  end
  begin
     id 5 
     name ltoes
     direction 1.53451e-011 -4.21692e-011 1   
     length 0.823104   
     axis -90 7.62852e-016 20   XYZ
    dof rx
    limits (-90.0 20.0)
  end
  begin
     id 6 
     name rhipjoint
     direction -0.746398 -0.615468 0.253157   
     length 2.59446  
     axis 0 0 0  XYZ 
  end
  begin
     id 7 
     name rfemur
     direction -0.34202 -0.939693 0   
     length 6.7075   
     axis 0 0 -20   XYZ
    dof rx ry rz
    limits (-160.0 20.0)
           (-70.0 70.0)
           (-70.0 60.0)
  end
  begin
     id 8 
     name rtibia
     direction -0.34202 -0.939693 0   
     length 7.27262   
     axis 0 0 -20   XYZ
    dof rx
    limits (-10.0 170.0)
 end
 begin
     id 9 
     name rfoot
     direction -0.0455203 -0.125066 0.991104   
     length 1.91095  
     axis -90 -7.62852e-016 -20   XYZ
    dof rx rz
    limits (-45.0 90.0)
           (-20.0 70.0)
  end
  begin
     id 10 
     name rtoes
     direction -1.53601e-011 -4.21913e-011 1   
     length 0.969037   
     axis -90 -7.62852e-016 -20   XYZ
    dof rx
    limits (-90.0 20.0)
  end
  begin
     id 11 
     name lowerback
     direction 0.0181546 0.999122 -0.0377542   
     length 1.99916   
     axis 0 0 0   XYZ
    dof rx ry rz
    limits (-20.0 45.0)
           (-30.0 30.0)
           (-30.0 30.0)
  end
  begin
     id 12 
     name upperback
     direction 0.0203486 0.99589 0.0882534   
     length 1.951   
     axis 0 0 0   XYZ
    dof rx ry rz
    limits (-20.0 45.0)
           (-30.0 30.0)
           (-30.0 30.0)
  end
  begin
     id 13 
     name thorax
     direction 0.0131685 0.994241 0.106355   
     length 1.97461   
     axis 0 0 0   XYZ
    dof rx ry rz
    limits (-20.0 45.0)
           (-30.0 30.0)
           (-30.0 30.0)
  end
  begin
     id 14 
     name lowerneck
     direction -0.0281395 0.999325 0.023617   
     length 1.7959   
     axis 0 0 0   XYZ
    dof rx ry rz
    limits (-20.0 45.0)
           (-30.0 30.0)
           (-30.0 30.0)
  end
  begin
     id 15 
     name upperneck
     direction 0.0288721 0.991984 -0.123019   
     length 1.79917   
     axis 0 0 0   XYZ
    dof rx ry rz
    limits (-20.0 45.0)
           (-30.0 30.0)
           (-30.0 30.0)
  end
  begin
     id 16
     name head
     direction 0.0133797 0.998944 -0.0439492  
     length 1.80902  
     axis 0 0 0   XYZ
    dof rx ry rz
    limits (-20.0 45.0)
           (-30.0 30.0)
           (-30.0 30.0)
  end
  begin
     id 17 
     name lclavicle
     direction 0.919195 0.377107 0.113449  
     length 3.17815  
     axis 0 0 0   XYZ
    dof ry rz
    limits (-20.0 10.0)
           (0.0 20.0)
  end
  begin
     id 18 
     name lhumerus
     direction 1 -4.48959e-011 2.13129e-027   
     length 4.84137   
     axis 180 -30 -90   XYZ
    dof rx ry rz
    limits (-60.0 90.0)
           (-90.0 90.0)
           (-90.0 90.0)
  end
  begin
     id 19
     name lradius
     direction 1 -4.48957e-011 -6.30627e-028   
     length 3.2452   
     axis 180 -30 -90   XYZ
    dof rx
    limits (-10.0 170.0)
  end
  begin
     id 20
     name lwrist
     direction 1 -4.4901e-011 9.13299e-027   
     length 1.6226   
     axis -6.84618e-015 90 90   XYZ
    dof ry
    limits (-180.0 0.0)
 end
  begin
     id 21 
     name lhand
     direction 1 -4.48816e-011 1.82293e-026   
     length 0.521221   
     axis -1.16502e-014 90 90   XYZ
    dof rx rz
    limits (-90.0 90.0)
           (-45.0 45.0)
  end
  begin
     id 22 
     name lfingers
     direction 1 -4.49108e-011 3.65687e-026   
     length 0.420221   
     axis -2.33008e-014 90 90   XYZ
    dof rx
    limits (0.0 90.0)
  end
  begin
     id 23
     name lthumb
     direction 0.707107 -6.34943e-011 0.707107   
     length 0.603356   
     axis -90 45 5.69224e-014   XYZ
    dof rx rz
    limits (-45.0 45.0)
           (-45.0 45.0)
  end
  begin
     id 24 
     name rclavicle
     direction -0.90847 0.38596 0.160368   
     length 3.12973  
     axis 0 0 0   XYZ 
    dof ry rz
    limits (-10.0 20.0)
           (-20.0 0.0)
  end
  begin
     id 25 
     name rhumerus
     direction -1 -4.48974e-011 4.47268e-028  
     length 4.72284   
     axis 180 30 90   XYZ
    dof rx ry rz
    limits (-90.0 60.0)
           (-90.0 90.0)
           (-90.0 90.0)
  end
  begin
     id 26 
     name rradius
     direction -1 -4.48969e-011 3.43203e-027   
     length 3.23459   
     axis 180 30 90   XYZ
    dof rx
    limits (-10.0 170.0)
  end
  begin
     id 27 
     name rwrist
     direction -1 -4.48969e-011 9.12911e-027   
     length 1.6173   
     axis -6.84618e-015 -90 -90   XYZ
    dof ry
    limits (-180.0 0.0)
  end
  begin
     id 28
     name rhand
     direction -1 -4.49194e-011 1.83006e-026   
     length 0.307416   
     axis -1.16502e-014 -90 -90   XYZ
    dof rx rz
    limits (-90.0 90.0)
           (-45.0 45.0)
  end
  begin
     id 29
     name rfingers
     direction -1 -4.48423e-011 3.63103e-026   
     length 0.247847   
     axis -2.33008e-014 -90 -90   XYZ
    dof rx
    limits (0.0 90.0)
  end
  begin
     id 30
     name rthumb
     direction -0.707107 -6.34802e-011 0.707107   
     length 0.35586   
     axis -90 -45 -5.69224e-014   XYZ
    dof rx rz
    limits (-45.0 45.0)
           (-45.0 45.0)
  end
:hierarchy
  begin
    root lhipjoint rhipjoint lowerback
    lhipjoint lfemur
    lfemur ltibia
    ltibia lfoot
    lfoot ltoes
    rhipjoint rfemur
    rfemur rtibia
    rtibia rfoot
    rfoot rtoes
    lowerback upperback
    upperback thorax
    thorax lowerneck lclavicle rclavicle
    lowerneck upperneck
    upperneck head
    lclavicle lhumerus
    lhumerus lradius
    lradius lwrist
    lwrist lhand lthumb
    lhand lfingers
    rclavicle rhumerus
    rhumerus rradius
    rradius rwrist
    rwrist rhand rthumb
    rhand rfingers
  end

#!OML:ASF H:\Terrain\Patient Classification 1\Animal1\Tuesday\Animal1.ASF
:FULLY-SPECIFIED
:DEGREES
177
root 24.4162 15.145 -31.8256 14.9997 -42.6608 5.38726
lowerback 20.9957 -0.172849 1.22056
upperback 7.83878 -0.260102 -0.82309
thorax -3.23196 -0.193999 -1.50679
lowerneck -3.45797 8.14597 -2.8515
upperneck -22.9714 9.77635 -7.07577
head -6.21646 5.42842 -2.18268
rclavicle 8.0309e-014 -6.16232e-014
rhumerus -23.7619 8.37035 -80.7806
rradius 70.6241
rwrist -0.618298
rhand -14.2809 19.4928
rfingers 7.12502
rthumb 11.8583 -10.1514
lclavicle 8.0309e-014 -6.16232e-014
lhumerus -29.0039 12.5206 79.3615
lradius 84.7947
lwrist -38.0748
lhand 0.740948 58.6029
lfingers 7.12502
lthumb 26.2999 86.7997
rfemur -46.598 6.2749 26.3275
rtibia 49.6444
rfoot -13.336 -25.1276
rtoes 5.35673
lfemur -48.1249 -7.8339 -13.4802
ltibia 59.5986
lfoot -10.816 14.4608
ltoes -13.8837
178
root 24.4108 15.1373 -31.8306 15.4409 -42.751 5.12236
lowerback 21.4271 -0.00992406 1.05174
upperback 7.61748 -0.0621224 -0.577747
thorax -3.68323 -0.105113 -1.19563
lowerneck -3.59342 8.13764 -2.94473
upperneck -22.6969 9.78023 -7.07995
head -6.11075 5.43273 -2.15243
rclavicle -7.39479e-014 1.55052e-014
rhumerus -23.7254 8.35987 -80.4418
rradius 70.7801
rwrist -0.801097
rhand -14.5526 18.9174
rfingers 7.12502
rthumb 11.5962 -10.7417
lclavicle -7.39479e-014 1.55052e-014
lhumerus -29.113 12.4752 79.5467
lradius 84.8808
lwrist -37.9356
lhand 1.09447 58.4578
lfingers 7.12502
lthumb 26.6383 86.6036
rfemur -46.9207 6.13252 26.6478
rtibia 49.6586
rfoot -13.3346 -24.6133
rtoes 4.44801
lfemur -48.5767 -7.73626 -13.1529
ltibia 59.8551
lfoot -10.6056 14.3218
ltoes -12.0432
179
root 24.4027 15.1349 -31.8317 15.8771 -42.8312 4.81297
lowerback 21.3507 -0.0303157 1.33152
upperback 7.70566 -0.0408094 -0.641299
thorax -3.54746 -0.0908285 -1.4278
lowerneck -3.54974 8.20405 -2.92974
upperneck -22.8795 9.89208 -6.95125
head -6.18131 5.48163 -2.12848
rclavicle -7.95139e-015 3.97569e-015
rhumerus -23.3274 8.29575 -80.551
rradius 70.8208
rwrist -0.750031
rhand -14.781 18.9236
rfingers 7.12502
rthumb 11.376 -10.7479
lclavicle -7.95139e-015 3.97569e-015
lhumerus -28.9617 12.071 79.5274
lradius 84.9477
lwrist -36.762
lhand -0.989717 58.1642
lfingers 7.12502
lthumb 24.6421 86.5978
rfemur -47.1603 6.05567 26.966
rtibia 49.6986
rfoot -13.6729 -24.1397
rtoes 5.05033
lfemur -48.9205 -7.63593 -12.8524
ltibia 60.1414
lfoot -10.2183 14.4628
ltoes -14.0281
180
root 24.3956 15.1283 -31.8295 16.1989 -42.8629 4.68403
lowerback 21.2956 -0.0599661 1.53293
upperback 7.71923 -0.0428441 -0.688128
thorax -3.50391 -0.0886368 -1.59199
lowerneck -3.33183 8.25465 -2.90852
upperneck -23.0676 9.94818 -6.96924
head -6.27516 5.51541 -2.15788
rclavicle -1.86858e-014 -1.94809e-014
rhumerus -23.1621 8.19579 -80.5388
rradius 70.8993
rwrist -0.556703
rhand -15.244 19.3264
rfingers 7.12502
rthumb 10.9294 -10.3691
lclavicle -1.86858e-014 -1.94809e-014
lhumerus -28.8421 11.7959 79.4868
lradius 84.8723
lwrist -36.1794
lhand -1.9523 58.6272
lfingers 7.12502
lthumb 23.7191 87.1835
rfemur -47.4533 5.98274 27.1118
rtibia 49.801
rfoot -13.2939 -24.1605
rtoes 4.33089
lfemur -49.2509 -7.59221 -12.7164
ltibia 60.445
lfoot -9.97189 14.6303
ltoes -16.1614
181
root 24.395 15.1089 -31.835 16.6177 -42.7186 4.48449
lowerback 21.2565 -0.129401 1.7788
upperback 7.77759 -0.0854322 -0.679982
thorax -3.42165 -0.105878 -1.71318
lowerneck -3.19482 8.279 -2.77616
upperneck -23.3787 9.93793 -7.14605
head -6.38075 5.51926 -2.25222
rclavicle 1.43125e-014 2.94201e-014
rhumerus -22.8034 8.03854 -80.4735
rradius 70.9549
rwrist -0.412067
rhand -15.7038 19.4712
rfingers 7.12502
rthumb 10.4859 -10.2473
lclavicle 1.43125e-014 2.94201e-014
lhumerus -28.3826 11.9689 79.2827
lradius 84.4419
lwrist -36.2551
lhand -1.81474 58.3606
lfingers 7.12502
lthumb 23.8511 86.8998
rfemur -47.9131 5.86618 27.3365
rtibia 49.9796
rfoot -11.993 -24.6758
rtoes 1.13493
lfemur -49.8169 -7.68494 -12.4077
ltibia 60.758
lfoot -9.71463 14.6723
ltoes -17.9098
182
root 24.3945 15.0971 -31.8483 16.7985 -42.4589 4.45395
lowerback 21.4672 -0.179877 1.75962
upperback 7.79001 -0.141802 -0.504822
thorax -3.5173 -0.13694 -1.50197
lowerneck -2.95224 8.23547 -2.9548
upperneck -23.6543 9.8298 -7.25336
head -6.51886 5.49659 -2.27767
rclavicle -4.25399e-014 -3.18055e-015
rhumerus -22.6063 8.17406 -80.0657
rradius 71.1046
rwrist -0.434099
rhand -15.798 19.4407
rfingers 7.12502
rthumb 10.395 -10.2823
lclavicle -4.25399e-014 -3.18055e-015
lhumerus -28.1848 12.4281 79.2429
lradius 84.2808
lwrist -36.7923
lhand -0.513163 57.4866
lfingers 7.12502
lthumb 25.0988 85.8571
rfemur -48.2571 5.6404 27.464
rtibia 50.2156
rfoot -11.6812 -24.7468
rtoes 0.0491358
lfemur -50.3196 -7.97883 -12.1287
ltibia 60.9992
lfoot -9.55673 14.4781
ltoes -17.7515
183
root 24.3867 15.0946 -31.8587 16.528 -42.3732 4.79224
lowerback 21.719 -0.19405 1.46847
upperback 7.90898 -0.217127 -0.449112
thorax -3.51932 -0.179021 -1.25853
lowerneck -2.80186 8.17184 -3.24102
upperneck -23.8358 9.72289 -7.2154
head -6.62626 5.47048 -2.23265
rclavicle 3.97569e-015 2.66371e-014
rhumerus -22.3313 8.39724 -79.6579
rradius 71.2182
rwrist -0.546685
rhand -15.7285 19.6037
rfingers 7.12502
rthumb 10.4621 -10.116
lclavicle 3.97569e-015 2.66371e-014
lhumerus -28.0023 12.7909 79.3029
lradius 84.5708
lwrist -37.7193
lhand 1.84033 57.6207
lfingers 7.12502
lthumb 27.3519 85.656
rfemur -48.3489 5.56319 27.2317
rtibia 50.4742
rfoot -12.7708 -24.2175
rtoes 2.5605
lfemur -50.3993 -8.17937 -12.2508
ltibia 61.144
lfoot -9.42946 14.2886
ltoes -16.674
184
root 24.3772 15.0917 -31.8652 16.2577 -42.4137 5.05691
lowerback 22.7501 -0.048668 1.01378
upperback 7.59757 -0.10001 -0.322707
thorax -4.37373 -0.133645 -0.892596
lowerneck -3.00293 8.13524 -3.39768
upperneck -23.3343 9.71252 -7.13437
head -6.44322 5.46245 -2.15251
rclavicle 2.0276e-014 -5.1684e-015
rhumerus -22.7378 8.43432 -79.2509
rradius 71.406
rwrist -0.731291
rhand -15.6134 19.8152
rfingers 7.12502
rthumb 10.5731 -9.89882
lclavicle 2.0276e-014 -5.1684e-015
lhumerus -28.3427 12.4727 79.5735
lradius 84.6979
lwrist -37.6053
lhand 1.88289 58.335
lfingers 7.12502
lthumb 27.3926 86.3639
rfemur -48.3699 5.59343 27.0371
rtibia 50.6987
rfoot -13.5232 -23.8101
rtoes 4.84679
lfemur -50.3462 -8.23561 -12.3753
ltibia 61.2505
lfoot -9.49802 14.1593
ltoes -15.6622
185
root 24.371 15.086 -31.8689 16.4587 -42.3104 4.88524
lowerback 22.8009 -0.0937115 1.23025
upperback 7.75215 -0.121125 -0.380902
thorax -4.23122 -0.142332 -1.07335
lowerneck -2.9672 8.19071 -3.27656
upperneck -23.5711 9.79904 -7.07802
head -6.52037 5.49586 -2.16855
rclavicle 3.97569e-016 2.34566e-014
rhumerus -22.387 8.17316 -79.2187
rradius 71.4421
rwrist -0.869888
rhand -15.5902 19.9575
rfingers 7.12502
rthumb 10.5955 -9.75535
lclavicle 3.97569e-016 2.34566e-014
lhumerus -28.0127 12.0996 79.5123
lradius 84.6638
lwrist -36.9098
lhand 0.895151 58.6467
lfingers 7.12502
lthumb 26.4475 86.8215
rfemur -48.5215 5.49118 27.2522
rtibia 50.8561
rfoot -13.6661 -23.694
rtoes 5.31073
lfemur -50.6085 -8.29436 -12.0743
ltibia 61.391
lfoot -9.7657 13.951
ltoes -14.4626
186
root 24.3678 15.0756 -31.8709 16.7897 -42.1187 4.71636
lowerback 21.9802 -0.391303 1.94232
upperback 8.36954 -0.411533 -0.823334
thorax -3.16045 -0.26205 -1.8831
lowerneck -2.78429 8.29077 -2.68075
upperneck -24.4737 9.91222 -7.15098
head -6.80254 5.52182 -2.33429
rclavicle -4.05521e-014 -4.13472e-014
rhumerus -21.1572 7.76181 -79.7841
rradius 71.2179
rwrist -0.679265
rhand -15.532 20.007
rfingers 7.12502
rthumb 10.6516 -9.703
lclavicle -4.05521e-014 -4.13472e-014
lhumerus -26.9199 12.2075 78.7479
lradius 84.6607
lwrist -37.1552
lhand 2.05859 58.6192
lfingers 7.12502
lthumb 27.5606 86.6214
rfemur -48.8221 5.31403 27.4757
rtibia 50.9748
rfoot -13.5381 -23.8968
rtoes 4.04066
lfemur -51.0418 -8.35071 -11.8083
ltibia 61.5524
lfoot -9.48178 13.9554
ltoes -16.6994
187
root 24.3645 15.0666 -31.8731 16.869 -42.0891 4.77876
lowerback 22.6356 -0.258437 1.65578
upperback 8.14233 -0.272807 -0.619019
thorax -3.72886 -0.207111 -1.53385
lowerneck -2.84779 8.25588 -2.65798
upperneck -24.2843 9.82971 -7.37476
head -6.71683 5.49432 -2.39329
rclavicle 1.98785e-015 2.78299e-015
rhumerus -21.3635 7.71142 -79.3339
rradius 71.3577
rwrist -0.594461
rhand -15.3462 19.7396
rfingers 7.12502
rthumb 10.8309 -9.96111
lclavicle 1.98785e-015 2.78299e-015
lhumerus -27.0928 11.9864 79.0359
lradius 84.6302
lwrist -36.9713
lhand 1.80015 58.8833
lfingers 7.12502
lthumb 27.3134 86.9248
rfemur -49.0592 5.23197 27.4785
rtibia 51.0911
rfoot -13.2414 -24.2383
rtoes 2.54395
lfemur -51.2619 -8.38123 -11.8038
ltibia 61.6845
lfoot -8.97502 14.0501
ltoes -20.1619
